<svg width="39" height="25" viewBox="0 0 39 25" fill="none" xmlns="http://www.w3.org/2000/svg">
<path fill-rule="evenodd" clip-rule="evenodd" d="M34.2348 7.90175C36.4753 8.18926 38.9662 6.87842 38.9231 3.96922C39.0016 -1.32275 30.6852 -1.32275 30.7637 3.96922C30.7469 5.10149 31.114 5.99165 31.7008 6.63969L25.9488 16.7586C25.5366 16.7172 25.1172 16.7341 24.7109 16.8093L20.0122 8.67031C20.4712 8.11666 20.7536 7.37651 20.7403 6.44986C20.8063 1.84256 13.5734 1.84256 13.6425 6.44986C13.6264 7.52462 14.0081 8.34849 14.602 8.92148L10.0574 18.3209C9.9286 18.3225 9.79991 18.3315 9.67233 18.3476L5.67848 11.761C6.03637 11.2859 6.25248 10.6674 6.24125 9.90559C6.30092 5.85732 -0.0588522 5.85732 0.000819743 9.90559C-0.0332465 12.2167 2.0249 13.2084 3.7864 12.8808L7.73212 19.388C7.37575 19.8404 7.15876 20.4366 7.16975 21.1766C7.11321 24.983 13.093 24.983 13.0364 21.1766C13.0477 20.3766 12.7929 19.7447 12.384 19.2809L16.9225 9.8944C17.2141 9.91314 17.5083 9.90121 17.7969 9.85859L22.5215 18.0426C22.0376 18.6277 21.7403 19.4093 21.7548 20.3876C21.6826 25.2587 29.3332 25.2587 29.2609 20.3876C29.2756 19.3998 28.9723 18.6125 28.48 18.0256L34.2348 7.90175Z" fill="#339698"/>
</svg>
